<svg width="21" height="22" viewBox="0 0 21 22" fill="none" xmlns="http://www.w3.org/2000/svg">
<path d="M1.67001 6.43994L10.5 11.5499L19.27 6.46994" stroke="#292D32" stroke-width="1.5" stroke-linecap="round" stroke-linejoin="round"/>
<path d="M10.5 20.61V11.54" stroke="#292D32" stroke-width="1.5" stroke-linecap="round" stroke-linejoin="round"/>
<path d="M8.43001 1.48L3.09001 4.45C1.88001 5.12 0.890015 6.8 0.890015 8.18V13.83C0.890015 15.21 1.88001 16.89 3.09001 17.56L8.43001 20.53C9.57001 21.16 11.44 21.16 12.58 20.53L17.92 17.56C19.13 16.89 20.12 15.21 20.12 13.83V8.18C20.12 6.8 19.13 5.12 17.92 4.45L12.58 1.48C11.43 0.84 9.57001 0.84 8.43001 1.48V1.48Z" stroke="#292D32" stroke-width="1.5" stroke-linecap="round" stroke-linejoin="round"/>
<path d="M15.5 12.24V8.57998L6.01001 3.09998" stroke="#292D32" stroke-width="1.5" stroke-linecap="round" stroke-linejoin="round"/>
</svg>
