<svg width="16" height="17" viewBox="0 0 16 17" fill="none" xmlns="http://www.w3.org/2000/svg">
<path d="M5.69899 6.72735H8.61295C8.87393 6.72735 9.08513 6.93766 9.08513 7.19882V7.45251C9.08513 7.71348 8.87393 7.92362 8.61295 7.92362H5.69899C5.43677 7.92362 5.22682 7.71348 5.22682 7.45251V7.19882C5.22682 6.93766 5.43695 6.72735 5.69899 6.72735ZM2.13971 5.46442C1.82486 5.46442 1.57135 5.73677 1.57135 6.07544V13.9551C1.57135 14.2939 1.82486 14.5663 2.13971 14.5663H9.08868C8.52317 13.9441 8.17402 13.119 8.17402 12.2118C8.17402 10.2774 9.74237 8.70904 11.6777 8.70904C11.9953 8.70904 12.301 8.75526 12.5936 8.83402V6.07544C12.5936 5.73677 12.3397 5.46442 12.025 5.46442H2.13971Z" fill="#640293"/>
<path d="M7.63322 2.39514L7.98149 4.76082H12.0112C12.2371 4.76082 12.3776 4.50909 12.2658 4.30625L11.238 2.849C11.0825 2.56829 10.7927 2.39531 10.4798 2.39531H7.63322V2.39514ZM3.68513 2.39514C3.37189 2.39514 3.08229 2.56811 2.92656 2.84883L1.89882 4.30607C1.787 4.50891 1.92851 4.76065 2.15376 4.76065H6.18344L6.53135 2.39496H3.68513V2.39514Z" fill="#640293"/>
<path d="M12.8647 10.9219C12.925 10.9236 12.9813 10.9448 13.0249 10.9885L13.2352 11.199C13.3344 11.2977 13.3212 11.4692 13.2073 11.583L11.3584 13.4319C11.2695 13.5208 11.099 13.5284 11.0028 13.4319L10.147 12.5763C10.0332 12.4627 10.0203 12.2911 10.1195 12.1923L10.3296 11.9818C10.4286 11.8838 10.5998 11.8957 10.714 12.0095L11.1806 12.4762L12.6416 11.0161C12.7052 10.9524 12.7879 10.9201 12.8647 10.9219ZM11.6775 9.53021C10.1961 9.53021 8.99609 10.7302 8.99609 12.2118C8.99609 13.6923 10.1961 14.8931 11.6775 14.8931C13.158 14.8931 14.3591 13.6923 14.3591 12.2118C14.3591 10.7302 13.158 9.53021 11.6775 9.53021Z" fill="#640293"/>
</svg>
