<svg width="16" height="17" viewBox="0 0 16 17" fill="none" xmlns="http://www.w3.org/2000/svg">
<path d="M14.6353 11.7179C14.4083 11.5932 14.1233 11.6761 13.9987 11.903C13.8741 12.1299 13.957 12.4149 14.1839 12.5395C14.7423 12.8463 15.0625 13.1864 15.0625 13.4725C15.0625 13.8226 14.5666 14.3651 13.1746 14.838C11.7994 15.3052 9.96172 15.5625 8 15.5625C6.03828 15.5625 4.20056 15.3052 2.82541 14.838C1.43344 14.3651 0.9375 13.8226 0.9375 13.4725C0.9375 13.1864 1.25775 12.8463 1.81613 12.5395C2.04303 12.4149 2.12591 12.1299 2.00125 11.903C1.87659 11.6761 1.59169 11.5932 1.36472 11.7179C0.742156 12.0599 0 12.6419 0 13.4725C0 14.1092 0.437875 15.017 2.52381 15.7257C3.99356 16.225 5.93837 16.5 8 16.5C10.0616 16.5 12.0064 16.225 13.4762 15.7257C15.5621 15.017 16 14.1092 16 13.4725C16 12.6419 15.2578 12.0599 14.6353 11.7179Z" fill="#0E9E49"/>
<path d="M4.46098 14.1603C5.41254 14.4291 6.66939 14.5772 7.99998 14.5772C9.33057 14.5772 10.5874 14.4291 11.539 14.1603C12.7031 13.8314 13.2934 13.3554 13.2934 12.7454C13.2934 12.1355 12.7031 11.6595 11.539 11.3306C11.2805 11.2576 10.9995 11.1936 10.7007 11.139C10.5384 11.4194 10.3684 11.7079 10.1906 12.0049C10.5213 12.0545 10.8319 12.1153 11.1139 12.1872C11.9706 12.4054 12.2836 12.651 12.3479 12.7455C12.2836 12.8399 11.9706 13.0856 11.1139 13.3038C10.303 13.5103 9.25967 13.6281 8.16082 13.6387C8.10761 13.6426 8.05398 13.6448 7.99998 13.6448C7.94595 13.6448 7.89236 13.6426 7.83911 13.6387C6.74026 13.6281 5.69695 13.5104 4.88604 13.3038C4.02929 13.0856 3.71632 12.8399 3.65198 12.7455C3.71632 12.651 4.02932 12.4054 4.88607 12.1872C5.16807 12.1154 5.47861 12.0545 5.80939 12.0049C5.63161 11.708 5.46157 11.4193 5.29929 11.139C5.00048 11.1936 4.71939 11.2576 4.46098 11.3306C3.29682 11.6595 2.70654 12.1355 2.70654 12.7454C2.70654 13.3554 3.29682 13.8314 4.46098 14.1603Z" fill="#0E9E49"/>
<path d="M8.00002 12.7073C8.4173 12.7073 8.79633 12.4947 9.01402 12.1385C10.5393 9.643 12.3575 6.35406 12.3575 4.85747C12.3575 2.45475 10.4028 0.5 8.00002 0.5C5.59727 0.5 3.64252 2.45475 3.64252 4.85747C3.64252 6.35406 5.46074 9.643 6.98602 12.1385C7.20371 12.4947 7.58277 12.7073 8.00002 12.7073ZM6.24855 4.55828C6.24855 3.59256 7.03427 2.80688 8.00002 2.80688C8.96577 2.80688 9.75149 3.59256 9.75149 4.55828C9.75149 5.52403 8.96577 6.30972 8.00002 6.30972C7.03427 6.30972 6.24855 5.52406 6.24855 4.55828Z" fill="#0E9E49"/>
</svg>
