<svg width="36" height="37" viewBox="0 0 36 37" fill="none" xmlns="http://www.w3.org/2000/svg">
<g clip-path="url(#clip0_3_1161)">
<path d="M0 8.66855C0 7.50085 0.948102 6.55426 2.11765 6.55426H27.7412C28.9107 6.55426 29.8588 7.50087 29.8588 8.66855V31.113C29.8588 32.2938 28.8902 33.2456 27.7075 33.227L6.3255 32.8883C5.86247 32.8811 5.4098 33.0255 5.03682 33.2996L0 37V8.66855Z" fill="#FC6605"/>
<path d="M33.8824 0H8.25888C7.08934 0 6.14124 0.946598 6.14124 2.11429V24.1029C6.14124 25.2705 7.08934 26.2171 8.25888 26.2171H33.8824C35.052 26.2171 36.0001 25.2705 36.0001 24.1029V2.11429C36.0001 0.946598 35.052 0 33.8824 0Z" fill="#640293"/>
<path d="M14.6363 8.02896C14.1101 8.0182 13.6664 8.43846 13.7488 8.95743C13.8328 9.48625 13.9961 10.0059 14.2359 10.504C14.6178 11.2974 15.1862 12.0198 15.9072 12.6283C16.6281 13.2368 17.4871 13.719 18.433 14.0462C19.3788 14.3735 20.3924 14.5391 21.4134 14.5333C22.4344 14.5275 23.4421 14.3503 24.3767 14.0124C25.3114 13.6744 26.1538 13.1826 26.8541 12.566C27.5542 11.9494 28.098 11.2207 28.4529 10.4231C28.6643 9.94842 28.8061 9.45518 28.8767 8.95392C28.9565 8.38488 28.461 7.93737 27.8858 7.95568L27.8564 7.95663C27.2626 7.97553 26.8143 8.48666 26.6807 9.06456C26.6239 9.30994 26.543 9.55148 26.4382 9.78663C26.1832 10.3594 25.7927 10.8827 25.29 11.3255C24.7871 11.7683 24.1823 12.1215 23.511 12.3642C22.8399 12.6069 22.1163 12.7341 21.3829 12.7383C20.6497 12.7425 19.9219 12.6235 19.2427 12.3885C18.5634 12.1535 17.9466 11.8073 17.4288 11.3703C16.9111 10.9333 16.5029 10.4146 16.2286 9.84475C16.0923 9.56165 15.9305 9.26757 15.8036 8.96821C15.5986 8.48425 15.1625 8.03972 14.6363 8.02896Z" fill="white"/>
</g>
<defs>
<clipPath id="clip0_3_1161">
<rect width="36" height="37" fill="white"/>
</clipPath>
</defs>
</svg>
