<svg width="21" height="20" viewBox="0 0 21 20" fill="none" xmlns="http://www.w3.org/2000/svg">
<path fill-rule="evenodd" clip-rule="evenodd" d="M14.642 0C16.2321 0.0018531 17.7565 0.63441 18.8808 1.75888C20.0051 2.88335 20.6374 4.40789 20.639 5.998V13.175C20.6374 14.7651 20.0051 16.2896 18.8808 17.4141C17.7565 18.5386 16.2321 19.1711 14.642 19.173H5.998C4.4078 19.1711 2.88326 18.5386 1.75882 17.4142C0.634378 16.2897 0.00185261 14.7652 0 13.175L0 5.998C0.00185261 4.4078 0.634378 2.88326 1.75882 1.75882C2.88326 0.634378 4.4078 0.00185261 5.998 0L14.642 0ZM14.642 1.5H5.998C4.80546 1.50132 3.66215 1.97564 2.8189 2.8189C1.97564 3.66215 1.50132 4.80546 1.5 5.998V13.175C1.50132 14.3675 1.97564 15.5109 2.8189 16.3541C3.66215 17.1974 4.80546 17.6717 5.998 17.673H14.642C15.8344 17.6714 16.9774 17.197 17.8205 16.3538C18.6635 15.5105 19.1377 14.3674 19.139 13.175V12.895H15.84C14.9281 12.8939 14.0539 12.5315 13.4087 11.8871C12.7636 11.2427 12.4001 10.3689 12.398 9.457C12.3991 8.54436 12.762 7.66938 13.4072 7.02395C14.0525 6.37852 14.9274 6.01532 15.84 6.014L19.138 6.013V5.998C19.1367 4.80581 18.6626 3.6628 17.8198 2.8196C16.977 1.97641 15.8342 1.50185 14.642 1.5V1.5ZM19.139 7.513H15.84C15.325 7.51379 14.8314 7.71879 14.4673 8.08303C14.1033 8.44727 13.8985 8.94102 13.898 9.456C13.898 10.525 14.77 11.396 15.84 11.396L19.138 11.395V7.513H19.139ZM16.299 8.643C16.4979 8.643 16.6887 8.72202 16.8293 8.86267C16.97 9.00332 17.049 9.19409 17.049 9.393C17.049 9.59191 16.97 9.78268 16.8293 9.92333C16.6887 10.064 16.4979 10.143 16.299 10.143H15.986C15.7871 10.143 15.5963 10.064 15.4557 9.92333C15.315 9.78268 15.236 9.59191 15.236 9.393C15.236 9.19409 15.315 9.00332 15.4557 8.86267C15.5963 8.72202 15.7871 8.643 15.986 8.643H16.298H16.299ZM10.685 4.538C10.8839 4.538 11.0747 4.61702 11.2153 4.75767C11.356 4.89832 11.435 5.08909 11.435 5.288C11.435 5.48691 11.356 5.67768 11.2153 5.81833C11.0747 5.95898 10.8839 6.038 10.685 6.038H5.285C5.08609 6.038 4.89532 5.95898 4.75467 5.81833C4.61402 5.67768 4.535 5.48691 4.535 5.288C4.535 5.08909 4.61402 4.89832 4.75467 4.75767C4.89532 4.61702 5.08609 4.538 5.285 4.538H10.685Z" fill="#212121"/>
</svg>
