<svg width="44" height="48" viewBox="0 0 44 48" fill="none" xmlns="http://www.w3.org/2000/svg">
<path d="M22 25.3511V47.5471L6.86335 41.4683C6.08262 41.1548 5.57101 40.398 5.57101 39.5566V18.7533L22 25.3511Z" fill="#F2A916"/>
<path d="M22 25.3511V47.5471L37.1366 41.4683C37.9174 41.1548 38.429 40.398 38.429 39.5566V18.7533L22 25.3511Z" fill="#FFC536"/>
<path d="M31.7266 36.6528L34.9739 35.4214C35.6478 35.1659 36.3691 35.6638 36.3691 36.3846V38.8454C36.3691 39.2734 36.1045 39.6567 35.7043 39.8085L32.457 41.0398C31.7831 41.2954 31.0618 40.7975 31.0618 40.0767V37.6159C31.0618 37.1879 31.3264 36.8045 31.7266 36.6528Z" fill="#EDEDED"/>
<path d="M16.6268 30.9899L22 25.3512L5.57101 18.7534L1.33115 23.2027C0.326403 24.2571 0.703262 25.9927 2.0548 26.5355L14.3677 31.4804C15.1502 31.7946 16.0452 31.6003 16.6268 30.9899Z" fill="#FFC536"/>
<path d="M27.3732 30.9899L22 25.3512L38.429 18.7534L42.6688 23.2027C43.6736 24.2571 43.2967 25.9927 41.9452 26.5355L29.6323 31.4804C28.8498 31.7946 27.9548 31.6003 27.3732 30.9899Z" fill="#F2A916"/>
<path d="M38.429 18.7579L22 25.35L5.57101 18.7579L22 12.1553L38.429 18.7579Z" fill="#2C3642"/>
<path d="M22 0.45282C17.5723 0.45282 13.9885 4.04014 13.9885 8.46437C13.9885 11.9324 18.9035 18.986 21.0341 21.8808C21.5142 22.5331 22.4858 22.5331 22.9659 21.8808C25.0965 18.986 30.0115 11.9324 30.0115 8.46437C30.0115 4.04014 26.4242 0.45282 22 0.45282ZM22 13.5102C19.2114 13.5102 16.9542 11.2529 16.9542 8.46437C16.9542 5.67924 19.2114 3.41851 22 3.41851C24.7851 3.41851 27.0458 5.67924 27.0458 8.46437C27.0458 11.2529 24.7851 13.5102 22 13.5102Z" fill="#F34624"/>
<path d="M22 13.5102C19.2114 13.5102 16.9541 11.253 16.9541 8.46438C16.9541 5.67926 19.2114 3.41852 22 3.41852C24.7851 3.41852 27.0458 5.67926 27.0458 8.46438C27.0458 11.253 24.7851 13.5102 22 13.5102Z" fill="#EDEDED"/>
</svg>
