<svg width="16" height="22" viewBox="0 0 16 22" fill="none" xmlns="http://www.w3.org/2000/svg">
<path fill-rule="evenodd" clip-rule="evenodd" d="M8.345 20.6621C4.653 20.6621 1.5 20.0871 1.5 17.7871C1.5 15.4861 4.633 13.3621 8.345 13.3621C12.036 13.3621 15.189 15.4651 15.189 17.7661C15.189 20.0661 12.056 20.6621 8.345 20.6621Z" stroke="#212121" stroke-width="1.5" stroke-linecap="round" stroke-linejoin="round"/>
<path fill-rule="evenodd" clip-rule="evenodd" d="M8.33701 10.174C9.50052 10.174 10.6164 9.71182 11.4391 8.8891C12.2618 8.06638 12.724 6.95053 12.724 5.78702C12.724 4.62352 12.2618 3.50767 11.4391 2.68495C10.6164 1.86222 9.50052 1.40002 8.33701 1.40002C7.17359 1.40029 6.05789 1.86258 5.23523 2.68524C4.41256 3.5079 3.95028 4.6236 3.95001 5.78702C3.94791 6.36112 4.05892 6.93 4.2767 7.46119C4.49448 7.99237 4.81477 8.47545 5.21928 8.88284C5.62378 9.29022 6.10458 9.61393 6.63421 9.83547C7.16383 10.057 7.73192 10.1721 8.30601 10.174H8.33701Z" stroke="#212121" stroke-width="1.5" stroke-linecap="round" stroke-linejoin="round"/>
</svg>
