<svg width="52" height="52" viewBox="0 0 52 52" fill="none" xmlns="http://www.w3.org/2000/svg">
<path d="M29.0426 29.7707C27.8009 27.3593 27.9028 24.5373 29.3151 22.2216C30.7273 19.9059 33.1897 18.5236 35.9019 18.5236C36.0337 18.5236 36.1646 18.5278 36.2951 18.5342V4.85175L35.6784 4.75018H6.49452L5.88311 4.85175V36.4989C5.88311 37.0868 6.35964 37.5632 6.94738 37.5632H33.055L29.0426 29.7707Z" fill="#D8ECFE"/>
<path d="M10.3059 36.4989V4.85175H5.88311V36.4989C5.88311 37.0868 6.35964 37.5632 6.94738 37.5632H11.37C10.7824 37.5632 10.3059 37.0867 10.3059 36.4989Z" fill="#C4E2FF"/>
<path d="M35.2308 0H6.94748C6.35964 0 5.88321 0.476531 5.88321 1.06427V4.85164H36.2952V1.06427C36.2951 0.476531 35.8186 0 35.2308 0Z" fill="#4FC123"/>
<path d="M11.3701 0H6.94748C6.35964 0 5.88321 0.476531 5.88321 1.06427V4.85164H10.3059V1.06427C10.3059 0.476531 10.7824 0 11.3701 0Z" fill="#47A920"/>
<path d="M18.4226 24.7761H10.2655C9.84486 24.7761 9.50381 24.4351 9.50381 24.0143C9.50381 23.5936 9.84486 23.2526 10.2655 23.2526H18.4226C18.8433 23.2526 19.1843 23.5936 19.1843 24.0143C19.1843 24.4351 18.8433 24.7761 18.4226 24.7761Z" fill="#8AC9FE"/>
<path d="M28.1908 26.6558H10.2655C9.84486 26.6558 9.50381 26.9967 9.50381 27.4175C9.50381 27.8383 9.84486 28.1792 10.2655 28.1792H28.4314C28.2994 27.6774 28.2191 27.1672 28.1908 26.6558Z" fill="#8AC9FE"/>
<path d="M29.191 30.0588H10.2655C9.84486 30.0588 9.50381 30.3998 9.50381 30.8206C9.50381 31.2413 9.84486 31.5823 10.2655 31.5823H29.9755L29.191 30.0588Z" fill="#8AC9FE"/>
<path d="M20.2528 18.2084C20.2528 15.8347 21.6424 13.7795 23.6509 12.8133V8.78343C23.6509 8.47021 23.397 8.21631 23.0838 8.21631H10.8327C10.5195 8.21631 10.2656 8.47021 10.2656 8.78343V18.7196C10.2656 19.0328 10.5195 19.2868 10.8327 19.2868H20.3521C20.2881 18.9367 20.2528 18.5768 20.2528 18.2084Z" fill="#F6A96C"/>
<path d="M13.7656 18.7197V8.78341C13.7656 8.47019 14.0195 8.21619 14.3327 8.21619H10.8327C10.5194 8.21619 10.2654 8.47009 10.2654 8.78341V18.7196C10.2654 19.0328 10.5193 19.2868 10.8327 19.2868H14.3327C14.0195 19.2868 13.7656 19.0329 13.7656 18.7197Z" fill="#EA9B58"/>
<path d="M18.5008 12.5048H15.4155C15.2275 12.5048 15.0751 12.3524 15.0751 12.1644V8.21631H18.8412V12.1646C18.8412 12.3524 18.6888 12.5048 18.5008 12.5048Z" fill="#FE646F"/>
<path d="M29.3151 22.2215C30.0102 21.0817 30.9602 20.1687 32.0688 19.5346C32.1658 19.1077 32.2188 18.6642 32.2188 18.2084C32.2188 14.9094 29.5349 12.2255 26.2358 12.2255C22.9368 12.2255 20.2529 14.9094 20.2529 18.2084C20.2529 21.5075 22.9368 24.1914 26.2358 24.1914C27.081 24.1914 27.8852 24.0142 28.6148 23.6966C28.7937 23.1891 29.0266 22.6946 29.3151 22.2215Z" fill="white"/>
<path d="M23.8028 18.2084C23.8028 15.5272 25.5757 13.2523 28.0107 12.4943C27.4497 12.3196 26.8535 12.2255 26.2357 12.2255C22.9367 12.2255 20.2528 14.9095 20.2528 18.2084C20.2528 21.5075 22.9367 24.1914 26.2357 24.1914C26.8535 24.1914 27.4497 24.0972 28.0107 23.9225C25.5757 23.1646 23.8028 20.8897 23.8028 18.2084Z" fill="#F3F0F3"/>
<path d="M29.1234 22.5557C28.2957 23.1073 27.3027 23.4296 26.2357 23.4296C23.3567 23.4296 21.0145 21.0874 21.0145 18.2084C21.0145 15.3294 23.3567 12.9872 26.2357 12.9872C29.1147 12.9872 31.457 15.3294 31.457 18.2084C31.457 18.9267 31.3111 19.6114 31.0476 20.2349C31.6152 19.7738 32.2443 19.3979 32.9174 19.1172C32.9576 18.8197 32.9804 18.5168 32.9804 18.2084C32.9804 14.4894 29.9547 11.4637 26.2357 11.4637C22.5167 11.4637 19.4911 14.4894 19.4911 18.2084C19.4911 21.9274 22.5167 24.9531 26.2357 24.9531C26.976 24.9531 27.6881 24.8314 28.355 24.6101C28.5095 23.9027 28.7659 23.2115 29.1234 22.5557Z" fill="#FE7701"/>
<path d="M29.2118 18.9701H26.2357C25.8151 18.9701 25.474 18.6292 25.474 18.2084V14.4407C25.474 14.02 25.8151 13.679 26.2357 13.679C26.6565 13.679 26.9975 14.02 26.9975 14.4407V17.4467H29.2118C29.6326 17.4467 29.9735 17.7876 29.9735 18.2084C29.9735 18.6292 29.6326 18.9701 29.2118 18.9701Z" fill="#8AC9FE"/>
<path d="M24.1206 43.7378L18.6164 38.636C18.4233 39.1221 18.1016 39.5432 17.693 39.8574L23.2668 45.0237C23.4302 44.5199 23.7292 44.0771 24.1206 43.7378Z" fill="#8AC9FE"/>
<path d="M13.3797 38.8695L5.01891 46.619C5.44984 46.9007 5.80094 47.2944 6.03007 47.7591L14.4013 39.9999C13.9675 39.7222 13.6131 39.3316 13.3797 38.8695Z" fill="#8AC9FE"/>
<path d="M46.9811 46.619L38.252 38.5281L37.528 39.9343L45.9699 47.7591C46.1991 47.2944 46.5502 46.9005 46.9811 46.619Z" fill="#8AC9FE"/>
<path d="M33.5351 38.4955L27.8794 43.7378C28.2708 44.0772 28.5698 44.52 28.7332 45.0237L34.2593 39.9017L33.5351 38.4955Z" fill="#8AC9FE"/>
<path d="M48.5482 52C50.1911 52 51.5229 50.6682 51.5229 49.0254C51.5229 47.3825 50.1911 46.0507 48.5482 46.0507C46.9053 46.0507 45.5735 47.3825 45.5735 49.0254C45.5735 50.6682 46.9053 52 48.5482 52Z" fill="#0593FC"/>
<path d="M48.1973 49.0254C48.1973 47.8535 48.8752 46.8403 49.8601 46.3554C49.4643 46.1605 49.0191 46.0507 48.5482 46.0507C46.9053 46.0507 45.5735 47.3825 45.5735 49.0254C45.5735 50.6683 46.9053 52 48.5482 52C49.0191 52 49.4643 51.8902 49.8601 51.6954C48.8752 51.2105 48.1973 50.1973 48.1973 49.0254Z" fill="#0182FC"/>
<path d="M3.45181 52C5.09467 52 6.42647 50.6682 6.42647 49.0254C6.42647 47.3825 5.09467 46.0507 3.45181 46.0507C1.80894 46.0507 0.477142 47.3825 0.477142 49.0254C0.477142 50.6682 1.80894 52 3.45181 52Z" fill="#0593FC"/>
<path d="M3.10091 49.0254C3.10091 47.8535 3.77884 46.8403 4.76369 46.3554C4.3679 46.1605 3.92275 46.0507 3.45181 46.0507C1.80893 46.0507 0.477142 47.3825 0.477142 49.0254C0.477142 50.6683 1.80893 52 3.45181 52C3.92275 52 4.3679 51.8902 4.76369 51.6953C3.77884 51.2105 3.10091 50.1972 3.10091 49.0254Z" fill="#0182FC"/>
<path d="M26 48.8829C27.6429 48.8829 28.9747 47.5511 28.9747 45.9082C28.9747 44.2653 27.6429 42.9335 26 42.9335C24.3571 42.9335 23.0253 44.2653 23.0253 45.9082C23.0253 47.5511 24.3571 48.8829 26 48.8829Z" fill="#0593FC"/>
<path d="M25.6491 45.9082C25.6491 44.7362 26.327 43.7231 27.3119 43.2382C26.9161 43.0433 26.4709 42.9334 26 42.9334C24.3571 42.9334 23.0253 44.2652 23.0253 45.9081C23.0253 47.551 24.3571 48.8827 26 48.8827C26.4709 48.8827 26.9161 48.7728 27.3119 48.5779C26.327 48.0933 25.6491 47.0801 25.6491 45.9082Z" fill="#0182FC"/>
<path d="M15.9455 40.5537C17.5884 40.5537 18.9202 39.2219 18.9202 37.579C18.9202 35.9362 17.5884 34.6044 15.9455 34.6044C14.3027 34.6044 12.9709 35.9362 12.9709 37.579C12.9709 39.2219 14.3027 40.5537 15.9455 40.5537Z" fill="#FE646F"/>
<path d="M15.6418 37.579C15.6418 36.4165 16.309 35.4105 17.2811 34.9211C16.8794 34.7189 16.426 34.6042 15.9455 34.6042C14.3026 34.6042 12.9709 35.936 12.9709 37.5789C12.9709 39.2217 14.3026 40.5535 15.9455 40.5535C16.4259 40.5535 16.8794 40.439 17.2811 40.2367C16.3091 39.7475 15.6418 38.7414 15.6418 37.579Z" fill="#FD4755"/>
<path d="M36.4062 42.3346L42.8516 29.8173C45.5303 24.615 41.7534 18.4221 35.9019 18.4221C30.0505 18.4221 26.2736 24.615 28.9523 29.8173L35.3977 42.3346C35.6088 42.7447 36.1952 42.7447 36.4062 42.3346Z" fill="#FE646F"/>
<path d="M33.3646 29.8171C31.0408 25.3042 33.5757 20.0467 38.1081 18.7324C37.4159 18.5316 36.6774 18.4219 35.9021 18.4219C30.0507 18.4219 26.2738 24.6149 28.9525 29.8171L35.3978 42.3345C35.609 42.7445 36.1952 42.7445 36.4064 42.3345L38.1081 39.0295L33.3646 29.8171Z" fill="#FD4755"/>
<path d="M35.9019 31.2589C38.486 31.2589 40.5808 29.1641 40.5808 26.5801C40.5808 23.996 38.486 21.9012 35.9019 21.9012C33.3179 21.9012 31.2231 23.996 31.2231 26.5801C31.2231 29.1641 33.3179 31.2589 35.9019 31.2589Z" fill="#FB2B3A"/>
<path d="M35.9019 28.8426C37.1515 28.8426 38.1645 27.8296 38.1645 26.5801C38.1645 25.3305 37.1515 24.3176 35.9019 24.3176C34.6524 24.3176 33.6394 25.3305 33.6394 26.5801C33.6394 27.8296 34.6524 28.8426 35.9019 28.8426Z" fill="white"/>
</svg>
