<svg width="52" height="52" viewBox="0 0 52 52" fill="none" xmlns="http://www.w3.org/2000/svg">
<path fill-rule="evenodd" clip-rule="evenodd" d="M3.24799 11.3688C3.24799 14.0606 39.7397 42.2315 40.6367 42.2315H42.2624C43.988 42.2315 45.6406 41.5477 46.861 40.3287C48.0799 39.1096 48.7654 37.4574 48.7654 35.7341C48.7654 29.6002 48.7654 19.127 48.7654 12.9932C48.7654 9.40415 45.8536 6.49579 42.2624 6.49579C33.5422 6.49579 15.5028 6.49579 8.12517 6.49579C5.43252 6.49579 3.24799 8.67706 3.24799 11.3688C3.24799 12.2661 3.24799 11.3688 3.24799 11.3688Z" fill="url(#paint0_linear_3_1390)"/>
<path fill-rule="evenodd" clip-rule="evenodd" d="M39.0096 8.125C39.0096 5.43238 36.8272 3.25 34.1338 3.25C29.4877 3.25 20.9029 3.25 16.2547 3.25C13.5634 3.25 11.3789 5.43238 11.3789 8.125V14.625C11.3789 15.522 12.1071 16.25 13.0049 16.25H37.3857C38.2835 16.25 39.0096 15.522 39.0096 14.625V8.125Z" fill="url(#paint1_linear_3_1390)"/>
<path fill-rule="evenodd" clip-rule="evenodd" d="M3.2509 11.3714V42.2341C3.2509 45.8231 6.1626 48.7315 9.75381 48.7315H39.0139C42.6051 48.7315 45.5168 45.8231 45.5168 42.2341C45.5168 36.1002 45.5168 25.627 45.5168 19.4932C45.5168 15.9041 42.6051 12.9958 39.0139 12.9958H8.12808C7.22953 12.9958 6.50235 12.2687 6.50235 11.3714C6.50235 10.4927 5.77368 9.74707 4.87663 9.74707C3.97957 9.74707 3.2509 10.4742 3.2509 11.3714Z" fill="url(#paint2_linear_3_1390)"/>
<path fill-rule="evenodd" clip-rule="evenodd" d="M35.7496 40.625C37.0435 40.625 38.2834 40.1102 39.1962 39.1976C40.1119 38.2824 40.6238 37.0422 40.6238 35.75C40.6238 33.6934 40.6238 31.3066 40.6238 29.25C40.6238 27.9578 40.1119 26.7176 39.1962 25.8024C38.2834 24.8898 37.0435 24.375 35.7496 24.375H29.2488C27.0961 24.375 25.0287 25.2304 23.5044 26.754C21.9802 28.2776 21.1242 30.3446 21.1242 32.5C21.1242 36.9876 24.7613 40.625 29.2488 40.625H35.7496Z" fill="black" fill-opacity="0.1"/>
<path fill-rule="evenodd" clip-rule="evenodd" d="M37.3746 39C38.6685 39 39.9084 38.4852 40.8212 37.5726C41.7369 36.6574 42.2488 35.4172 42.2488 34.125C42.2488 32.0684 42.2488 29.6816 42.2488 27.625C42.2488 26.3328 41.7369 25.0926 40.8212 24.1774C39.9084 23.2648 38.6685 22.75 37.3746 22.75H30.8738C28.7211 22.75 26.6537 23.6054 25.1294 25.129C23.6052 26.6526 22.7492 28.7196 22.7492 30.875C22.7492 35.3626 26.3863 39 30.8738 39H37.3746Z" fill="url(#paint3_linear_3_1390)"/>
<path fill-rule="evenodd" clip-rule="evenodd" d="M32.331 32.4716C32.331 33.3333 31.9887 34.1598 31.3794 34.7691C30.77 35.3785 29.9436 35.7208 29.0818 35.7208C28.2201 35.7208 27.3936 35.3785 26.7843 34.7691C26.1749 34.1598 25.8326 33.3333 25.8326 32.4716C25.8326 31.6099 26.1749 30.7834 26.7843 30.1741C27.3936 29.5647 28.2201 29.2224 29.0818 29.2224C29.9436 29.2224 30.77 29.5647 31.3794 30.1741C31.9887 30.7834 32.331 31.6099 32.331 32.4716Z" fill="black" fill-opacity="0.1"/>
<path fill-rule="evenodd" clip-rule="evenodd" d="M33.956 30.8466C33.956 31.7083 33.6137 32.5348 33.0044 33.1441C32.395 33.7535 31.5686 34.0958 30.7068 34.0958C29.8451 34.0958 29.0186 33.7535 28.4093 33.1441C27.7999 32.5348 27.4576 31.7083 27.4576 30.8466C27.4576 29.9849 27.7999 29.1584 28.4093 28.5491C29.0186 27.9397 29.8451 27.5974 30.7068 27.5974C31.5686 27.5974 32.395 27.9397 33.0044 28.5491C33.6137 29.1584 33.956 29.9849 33.956 30.8466Z" fill="url(#paint4_linear_3_1390)"/>
<defs>
<linearGradient id="paint0_linear_3_1390" x1="45.5139" y1="9.74449" x2="30.8996" y2="32.4955" gradientUnits="userSpaceOnUse">
<stop stop-color="#FF8860"/>
<stop offset="1" stop-color="#FF3B5B"/>
</linearGradient>
<linearGradient id="paint1_linear_3_1390" x1="24.3823" y1="14.625" x2="24.3823" y2="4.875" gradientUnits="userSpaceOnUse">
<stop stop-color="#51E1A3"/>
<stop offset="1" stop-color="#99FED4"/>
</linearGradient>
<linearGradient id="paint2_linear_3_1390" x1="11.3795" y1="47.1071" x2="37.3674" y2="17.8491" gradientUnits="userSpaceOnUse">
<stop stop-color="#FFAB21"/>
<stop offset="1" stop-color="#FBDE30"/>
</linearGradient>
<linearGradient id="paint3_linear_3_1390" x1="39" y1="24.375" x2="27.625" y2="39" gradientUnits="userSpaceOnUse">
<stop stop-color="#FFF3E0"/>
<stop offset="1" stop-color="#FFB742"/>
</linearGradient>
<linearGradient id="paint4_linear_3_1390" x1="30.7068" y1="34.0958" x2="32.3314" y2="27.5974" gradientUnits="userSpaceOnUse">
<stop stop-color="#FF3B5B"/>
<stop offset="1" stop-color="#FF8860"/>
</linearGradient>
</defs>
</svg>
