<svg width="46" height="46" viewBox="0 0 46 46" fill="none" xmlns="http://www.w3.org/2000/svg">
<path fill-rule="evenodd" clip-rule="evenodd" d="M0.247993 8.36884C0.247993 11.0606 36.7397 39.2315 37.6367 39.2315H39.2624C40.988 39.2315 42.6406 38.5477 43.861 37.3287C45.0799 36.1096 45.7654 34.4574 45.7654 32.7341C45.7654 26.6002 45.7654 16.127 45.7654 9.99319C45.7654 6.40415 42.8536 3.49579 39.2624 3.49579C30.5422 3.49579 12.5028 3.49579 5.12517 3.49579C2.43252 3.49579 0.247993 5.67706 0.247993 8.36884C0.247993 9.2661 0.247993 8.36884 0.247993 8.36884Z" fill="url(#paint0_linear_3_1391)"/>
<path fill-rule="evenodd" clip-rule="evenodd" d="M36.0096 5.125C36.0096 2.43238 33.8272 0.25 31.1338 0.25C26.4877 0.25 17.9029 0.25 13.2547 0.25C10.5634 0.25 8.37894 2.43238 8.37894 5.125V11.625C8.37894 12.522 9.10709 13.25 10.0049 13.25H34.3857C35.2835 13.25 36.0096 12.522 36.0096 11.625V5.125Z" fill="url(#paint1_linear_3_1391)"/>
<path fill-rule="evenodd" clip-rule="evenodd" d="M0.2509 8.37142V39.2341C0.2509 42.8231 3.1626 45.7315 6.75381 45.7315H36.0139C39.6051 45.7315 42.5168 42.8231 42.5168 39.2341C42.5168 33.1002 42.5168 22.627 42.5168 16.4932C42.5168 12.9041 39.6051 9.99577 36.0139 9.99577H5.12808C4.22953 9.99577 3.50235 9.26868 3.50235 8.37142C3.50235 7.49272 2.77368 6.74707 1.87663 6.74707C0.979572 6.74707 0.2509 7.47416 0.2509 8.37142Z" fill="url(#paint2_linear_3_1391)"/>
<path fill-rule="evenodd" clip-rule="evenodd" d="M32.7496 37.625C34.0435 37.625 35.2834 37.1102 36.1962 36.1976C37.1119 35.2824 37.6238 34.0422 37.6238 32.75C37.6238 30.6934 37.6238 28.3066 37.6238 26.25C37.6238 24.9578 37.1119 23.7176 36.1962 22.8024C35.2834 21.8898 34.0435 21.375 32.7496 21.375H26.2488C24.0961 21.375 22.0287 22.2304 20.5044 23.754C18.9802 25.2776 18.1242 27.3446 18.1242 29.5C18.1242 33.9876 21.7613 37.625 26.2488 37.625H32.7496Z" fill="black" fill-opacity="0.1"/>
<path fill-rule="evenodd" clip-rule="evenodd" d="M34.3746 36C35.6685 36 36.9084 35.4852 37.8212 34.5726C38.7369 33.6574 39.2488 32.4172 39.2488 31.125C39.2488 29.0684 39.2488 26.6816 39.2488 24.625C39.2488 23.3328 38.7369 22.0926 37.8212 21.1774C36.9084 20.2648 35.6685 19.75 34.3746 19.75H27.8738C25.7211 19.75 23.6537 20.6054 22.1294 22.129C20.6052 23.6526 19.7492 25.7196 19.7492 27.875C19.7492 32.3626 23.3863 36 27.8738 36H34.3746Z" fill="url(#paint3_linear_3_1391)"/>
<path fill-rule="evenodd" clip-rule="evenodd" d="M29.331 29.4716C29.331 30.3333 28.9887 31.1598 28.3794 31.7691C27.77 32.3785 26.9436 32.7208 26.0818 32.7208C25.2201 32.7208 24.3936 32.3785 23.7843 31.7691C23.1749 31.1598 22.8326 30.3333 22.8326 29.4716C22.8326 28.6099 23.1749 27.7834 23.7843 27.1741C24.3936 26.5647 25.2201 26.2224 26.0818 26.2224C26.9436 26.2224 27.77 26.5647 28.3794 27.1741C28.9887 27.7834 29.331 28.6099 29.331 29.4716Z" fill="black" fill-opacity="0.1"/>
<path fill-rule="evenodd" clip-rule="evenodd" d="M30.956 27.8466C30.956 28.7083 30.6137 29.5348 30.0044 30.1441C29.395 30.7535 28.5686 31.0958 27.7068 31.0958C26.8451 31.0958 26.0186 30.7535 25.4093 30.1441C24.7999 29.5348 24.4576 28.7083 24.4576 27.8466C24.4576 26.9849 24.7999 26.1584 25.4093 25.5491C26.0186 24.9397 26.8451 24.5974 27.7068 24.5974C28.5686 24.5974 29.395 24.9397 30.0044 25.5491C30.6137 26.1584 30.956 26.9849 30.956 27.8466Z" fill="url(#paint4_linear_3_1391)"/>
<defs>
<linearGradient id="paint0_linear_3_1391" x1="42.5139" y1="6.74449" x2="27.8996" y2="29.4955" gradientUnits="userSpaceOnUse">
<stop stop-color="#FF8860"/>
<stop offset="1" stop-color="#FF3B5B"/>
</linearGradient>
<linearGradient id="paint1_linear_3_1391" x1="21.3823" y1="11.625" x2="21.3823" y2="1.875" gradientUnits="userSpaceOnUse">
<stop stop-color="#51E1A3"/>
<stop offset="1" stop-color="#99FED4"/>
</linearGradient>
<linearGradient id="paint2_linear_3_1391" x1="8.37953" y1="44.1071" x2="34.3674" y2="14.8491" gradientUnits="userSpaceOnUse">
<stop stop-color="#FFAB21"/>
<stop offset="1" stop-color="#FBDE30"/>
</linearGradient>
<linearGradient id="paint3_linear_3_1391" x1="36" y1="21.375" x2="24.625" y2="36" gradientUnits="userSpaceOnUse">
<stop stop-color="#FFF3E0"/>
<stop offset="1" stop-color="#FFB742"/>
</linearGradient>
<linearGradient id="paint4_linear_3_1391" x1="27.7068" y1="31.0958" x2="29.3314" y2="24.5974" gradientUnits="userSpaceOnUse">
<stop stop-color="#FF3B5B"/>
<stop offset="1" stop-color="#FF8860"/>
</linearGradient>
</defs>
</svg>
